<svg width="96" height="92" viewBox="0 0 96 92" fill="none" xmlns="http://www.w3.org/2000/svg">
<path d="M9.20577 67.8916C8.72961 68.4063 8.80897 69.198 9.32481 69.6335C9.84065 70.1481 10.6342 70.1481 11.1104 69.5939C11.5866 69.1188 11.5866 68.3271 11.0707 67.8125C10.5152 67.377 9.72161 67.3374 9.20577 67.8916Z" fill="#114B8C"/>
<path d="M9.20577 67.8916C8.72961 68.4063 8.80897 69.198 9.32481 69.6335C9.84065 70.1481 10.6342 70.1481 11.1104 69.5939C11.5866 69.1188 11.5866 68.3271 11.0707 67.8125C10.5152 67.377 9.72161 67.3374 9.20577 67.8916Z" fill="#114B8C"/>
<path fill-rule="evenodd" clip-rule="evenodd" d="M7.14236 60.9243L7.063 60.6472C7.73756 60.291 8.17404 59.8555 8.37244 59.42C8.57084 58.9846 8.61052 58.5491 8.49148 58.0741C8.37244 57.6386 8.17404 57.3615 7.89628 57.2428C7.61852 57.124 7.34076 57.124 7.10268 57.2032C6.82493 57.2824 6.62653 57.4407 6.50749 57.7178C6.42813 57.8762 6.34877 58.1929 6.26941 58.6283L6.15037 59.3409C6.03133 60.0534 5.87261 60.5681 5.63453 60.8848C5.39645 61.241 5.07901 61.4786 4.64253 61.5973C4.16637 61.7557 3.69021 61.7161 3.21406 61.5181C2.69822 61.3202 2.3411 60.8452 2.1427 60.1722C2.02366 59.8159 1.98398 59.4596 1.98398 59.1034C1.98398 58.7471 1.98398 58.5491 1.98398 58.5095C1.9443 58.3908 1.90462 58.3512 1.82526 58.3116C1.7459 58.272 1.66654 58.272 1.5475 58.272L1.46814 57.9949L3.53149 57.3615L3.61085 57.6386C3.17438 57.9157 2.81726 58.272 2.57918 58.6679C2.3411 59.1034 2.26174 59.5388 2.42046 59.9743C2.49982 60.291 2.69822 60.5285 2.9363 60.6472C3.17438 60.766 3.41245 60.8056 3.65053 60.7264C3.96797 60.6472 4.12669 60.4889 4.24573 60.2514C4.32509 60.0138 4.44413 59.5784 4.56317 58.9054L4.68221 58.0741C4.76157 57.7178 4.84093 57.4011 4.95997 57.1636C5.19805 56.6885 5.59485 56.4114 6.11069 56.2531C6.58685 56.0948 7.10268 56.1739 7.6582 56.4114C8.21372 56.649 8.61052 57.2032 8.8486 58.0345C8.88828 58.2324 8.96764 58.4304 8.96764 58.6283C9.00732 58.8262 9.00732 59.0242 8.96764 59.2617V59.4596C8.96764 59.4992 8.96764 59.5388 8.96764 59.5784C8.96764 59.618 8.96764 59.6576 8.96764 59.6972C9.00732 59.7763 9.047 59.8555 9.12636 59.8555C9.20572 59.8951 9.28508 59.8951 9.40412 59.8951L9.48348 60.1722L7.14236 60.9243Z" fill="#114B8C"/>
<path fill-rule="evenodd" clip-rule="evenodd" d="M7.57888 54.5508L7.3408 54.5904C7.30112 54.3133 7.22176 54.1154 7.1424 53.9966C7.02336 53.8382 6.82496 53.7591 6.5472 53.7987L1.78561 54.3925C1.50785 54.4321 1.30946 54.5508 1.2301 54.7488C1.19042 54.8675 1.15074 55.0654 1.19042 55.3426L0.952336 55.3821L0.238098 49.7212L2.22209 49.4837L2.26177 49.7212C1.62689 49.9191 1.2301 50.1963 1.0317 50.513C0.833296 50.8296 0.793617 51.3839 0.872976 52.1756C0.912656 52.4923 0.952336 52.6506 1.0317 52.7298C1.11106 52.809 1.2301 52.809 1.42849 52.809L3.69025 52.5319C3.61089 51.9777 3.49185 51.6214 3.25377 51.4234C3.01569 51.2651 2.61889 51.1463 2.06337 51.1068L2.02369 50.8692L5.3568 50.4734L5.39648 50.7109C4.84097 50.8692 4.48385 51.0276 4.28545 51.3047C4.08705 51.5422 4.00769 51.9381 4.08705 52.4923L6.46784 52.2152C6.66624 52.1756 6.82496 52.136 6.86464 52.0173C6.944 51.8985 6.944 51.661 6.90432 51.3443C6.82496 50.7109 6.62656 50.2358 6.3488 49.84C6.07104 49.4837 5.5552 49.167 4.84097 48.9691L4.80129 48.692L6.90432 48.8503L7.57888 54.5508Z" fill="#114B8C"/>
<path fill-rule="evenodd" clip-rule="evenodd" d="M6.42814 47.3064C6.42814 47.0293 6.38846 46.8314 6.34878 46.7126C6.26942 46.5147 6.07102 46.3959 5.79326 46.3959L0.991997 46.1584C0.714238 46.1584 0.515839 46.2376 0.396799 46.3959C0.317439 46.5147 0.277759 46.7126 0.238079 46.9897H0L0.198399 43.5457H0.436479C0.436479 43.9415 0.476159 44.2186 0.555518 44.377C0.634878 44.4957 0.872958 44.5749 1.26976 44.6145L5.95198 44.852C6.19006 44.852 6.3091 44.8124 6.38846 44.6937C6.46782 44.5749 6.5075 44.377 6.54718 44.0207C6.58686 43.4269 6.46782 42.9123 6.22974 42.5164C5.99166 42.0809 5.47582 41.7247 4.76159 41.408V41.1309L6.98366 41.6455L6.66622 47.346L6.42814 47.3064Z" fill="#114B8C"/>
<path fill-rule="evenodd" clip-rule="evenodd" d="M1.82525 33.8469C2.06333 33.451 2.18237 33.2531 2.22205 33.2135C2.26173 33.0947 2.22205 32.976 2.14269 32.8968C2.06333 32.8176 1.98397 32.7384 1.86493 32.6989L1.94429 32.4218L4.20604 32.9364L4.16636 33.1739C3.57116 33.2927 3.13468 33.451 2.77756 33.6094C2.14269 33.9261 1.78557 34.4011 1.62685 34.9553C1.46813 35.5887 1.66653 36.1429 2.14269 36.5388C2.61884 36.9347 3.37276 37.2514 4.2854 37.4493C4.95996 37.6076 5.55516 37.6472 6.03132 37.6076C6.94395 37.4889 7.49947 37.0534 7.65819 36.2221C7.77723 35.7075 7.73755 35.2324 7.57883 34.7574C7.45979 34.4803 7.30107 34.124 7.02331 33.7281L7.34075 33.4906C7.65819 33.9656 7.89627 34.3615 8.01531 34.6782C8.25339 35.272 8.25339 35.8658 8.13435 36.4992C8.13435 36.5784 8.09467 36.618 8.09467 36.6971L8.49147 36.9743C8.49147 36.8951 8.49147 36.8555 8.49147 36.8159C8.49147 36.7763 8.49147 36.7367 8.53115 36.6576C8.61051 36.3409 8.72955 36.1429 8.88827 36.0242C9.04699 35.945 9.24539 35.9054 9.40411 35.945C9.72155 36.0242 9.91994 36.1825 9.95962 36.4992C10.039 36.7763 9.9993 37.093 9.95962 37.4097C9.91994 37.5681 9.88027 37.7264 9.80091 37.8848C9.76123 38.0431 9.68187 38.1619 9.56283 38.2806L9.24539 38.0431C9.32475 37.9243 9.40411 37.8056 9.44379 37.7264C9.48347 37.6472 9.52315 37.5681 9.52315 37.4493C9.56283 37.2909 9.56283 37.1722 9.52315 37.0534C9.48347 36.9347 9.40411 36.8555 9.24539 36.8159C9.12635 36.7763 9.04699 36.8159 8.96763 36.8951C8.88827 36.9743 8.84859 37.0534 8.80891 37.2118C8.80891 37.2514 8.76923 37.3305 8.76923 37.3305C8.76923 37.3701 8.76923 37.4097 8.76923 37.4493L8.68987 37.6076L8.01531 37.093C7.73755 37.8452 7.30107 38.4786 6.58683 38.914C5.91228 39.3495 5.03932 39.4682 3.96796 39.1911C2.93628 38.9536 2.14269 38.3994 1.66653 37.5681C1.19037 36.7763 1.07133 35.945 1.30941 34.9949C1.38877 34.599 1.54749 34.2032 1.82525 33.8469Z" fill="#114B8C"/>
<path fill-rule="evenodd" clip-rule="evenodd" d="M4.2854 26.7212L4.52347 26.84C4.36476 27.1962 4.32508 27.4338 4.36476 27.6317C4.40444 27.79 4.60283 27.9484 4.95995 28.1067L7.97563 29.4527C8.45179 29.6506 8.8089 29.7694 9.12634 29.7694C9.68186 29.7694 10.0787 29.4923 10.3167 28.9381C10.6342 28.2255 10.5945 27.6713 10.158 27.1962C9.91994 26.9191 9.56282 26.6816 9.04698 26.4837L6.26939 25.2565C5.95195 25.0981 5.71387 25.0586 5.51547 25.1377C5.35675 25.2169 5.15835 25.4148 4.95995 25.7315L4.72187 25.6128L5.59483 23.6334L5.83291 23.7522C5.75355 24.0689 5.75355 24.3064 5.79323 24.4252C5.83291 24.5439 5.99163 24.6627 6.30907 24.821L9.2057 26.0878C9.95962 26.4441 10.4755 26.8795 10.7532 27.4338C10.9913 27.988 10.9516 28.661 10.5945 29.4527C10.1183 30.482 9.52314 31.0758 8.72954 31.1549C8.29307 31.1945 7.85659 31.1153 7.30107 30.8778L4.2854 29.5319C3.96796 29.3735 3.72988 29.2943 3.61084 29.3735C3.4918 29.4131 3.33308 29.611 3.17436 29.8882L2.93628 29.7694L4.2854 26.7212Z" fill="#114B8C"/>
<path fill-rule="evenodd" clip-rule="evenodd" d="M12.2214 25.0981C12.3802 24.8606 12.4595 24.7022 12.4992 24.5835C12.5389 24.3856 12.4198 24.1876 12.1818 23.9897L8.33281 21.0998C8.09473 20.9415 7.89633 20.8623 7.69793 20.9415C7.57889 20.9811 7.42017 21.1394 7.26145 21.3374L7.06305 21.179L9.08672 18.5267L9.28512 18.685C9.1264 19.0017 9.04704 19.2393 9.04704 19.3976C9.04704 19.5559 9.20576 19.7539 9.5232 19.9518L11.2294 21.2186L10.793 18.21C10.7136 18.0516 10.7136 17.8933 10.6739 17.8141C10.6342 17.7349 10.5946 17.6558 10.5152 17.6162C10.3962 17.537 10.3168 17.537 10.1978 17.6162C10.1184 17.6954 9.95968 17.8537 9.7216 18.0912L9.5232 17.9329L11.2691 15.6368L11.5072 15.8348C11.2294 16.2702 11.1104 16.7057 11.0707 17.1016C11.0707 17.537 11.1501 18.4079 11.3882 19.7143L16.1894 19.5559C16.3085 19.5559 16.3878 19.5164 16.4275 19.5164C16.4672 19.4768 16.5465 19.3976 16.6259 19.3184L16.8243 19.4768L14.8403 22.1291L14.6419 21.9707C14.8006 21.7332 14.9197 21.5749 14.999 21.4561C15.0387 21.3374 15.0387 21.2582 14.9593 21.2186C14.9197 21.179 14.88 21.179 14.8006 21.179C14.7213 21.179 14.6022 21.179 14.4832 21.179L11.5866 21.2582L11.6262 21.6145L13.1738 22.7625C13.4118 22.9208 13.6102 22.9604 13.8086 22.8812C13.9277 22.8417 14.0864 22.6833 14.2451 22.4854L14.4435 22.6437L12.4198 25.2961L12.2214 25.0981Z" fill="#114B8C"/>
<path fill-rule="evenodd" clip-rule="evenodd" d="M17.3401 18.4871C17.5385 18.2892 17.6576 18.1308 17.6972 18.0121C17.7766 17.8141 17.6972 17.5766 17.5385 17.3787L14.3244 13.8159C14.126 13.6179 13.9276 13.4992 13.7292 13.5783C13.6102 13.6179 13.4515 13.6971 13.2134 13.895L13.0547 13.6971L15.6339 11.4011L15.7926 11.599C15.5148 11.8761 15.3561 12.1136 15.3164 12.272C15.2768 12.4303 15.3958 12.6678 15.6736 12.945L18.8083 16.4286C18.967 16.5869 19.086 16.6661 19.2448 16.6265C19.3638 16.5869 19.5622 16.4682 19.8003 16.2703C20.2367 15.8744 20.5145 15.4389 20.6335 14.9639C20.7526 14.4888 20.6732 13.895 20.3955 13.1033L20.5939 12.9054L21.7843 14.8451L17.5385 18.6851L17.3401 18.4871Z" fill="#114B8C"/>
<path fill-rule="evenodd" clip-rule="evenodd" d="M22.3398 6.33395L22.4588 6.53189C22.1414 6.72982 21.943 6.92776 21.9033 7.0861C21.8636 7.24445 21.9033 7.48197 22.1017 7.79867L23.808 10.6489C24.0857 11.0844 24.3238 11.3615 24.5619 11.5594C24.9984 11.8761 25.5142 11.8761 26.03 11.5594C26.6649 11.1636 26.9824 10.6489 26.903 10.0551C26.8633 9.69884 26.7046 9.30297 26.4268 8.82793L24.8793 6.25478C24.6809 5.93808 24.5222 5.77973 24.3238 5.74015C24.1254 5.70056 23.8873 5.74015 23.5302 5.93808L23.4112 5.74015L25.2761 4.63171L25.3952 4.82965C25.1571 5.02758 24.9984 5.22552 24.9587 5.34428C24.919 5.46304 24.9984 5.66097 25.1571 5.93808L26.784 8.62999C27.2204 9.34256 27.3792 10.0155 27.2601 10.6093C27.1411 11.2031 26.7046 11.7178 25.9904 12.1928C24.9984 12.7866 24.1651 12.9054 23.4508 12.5095C23.0937 12.3116 22.7366 11.9553 22.4588 11.4803L20.7526 8.62999C20.5542 8.3133 20.3955 8.11536 20.2764 8.11536C20.1574 8.07578 19.9193 8.15495 19.6019 8.27371L19.4828 8.07578L22.3398 6.33395Z" fill="#114B8C"/>
<path fill-rule="evenodd" clip-rule="evenodd" d="M66.4638 10.7677C66.7019 10.9261 66.8606 11.0052 67.0193 11.0052C67.2574 11.0448 67.4161 10.9261 67.5749 10.6885L70.2731 6.72985C70.4318 6.49233 70.4715 6.2944 70.3525 6.09646C70.3128 5.9777 70.1541 5.85894 69.916 5.66101L70.0747 5.46307L72.6142 7.12572C73.0904 7.44242 73.4872 7.7987 73.7252 8.1154C74.2014 8.74879 74.2411 9.34259 73.8443 9.89681C73.6062 10.2531 73.3284 10.4114 72.9316 10.451C72.5349 10.4906 72.2174 10.4114 71.8603 10.2927L71.8206 10.3719C72.0984 10.649 72.2968 10.9261 72.4158 11.2032C72.6539 11.7574 72.6142 12.3116 72.2968 12.7867C71.9793 13.2221 71.5429 13.4596 70.908 13.4596C70.3128 13.4596 69.6382 13.2221 68.9637 12.7471L66.3051 10.9657L66.4638 10.7677ZM71.6222 9.69887C71.9 9.65929 72.1777 9.42177 72.4952 8.98631C72.6936 8.66961 72.8126 8.35292 72.8523 8.07581C72.892 7.7987 72.7332 7.52159 72.4158 7.32366C72.2571 7.2049 72.0984 7.16531 72.019 7.16531C71.9 7.16531 71.8206 7.24449 71.7016 7.40283L70.4715 9.26342C70.9477 9.6197 71.3445 9.77805 71.6222 9.69887ZM68.7256 11.9157C68.7256 12.0741 68.8049 12.2324 69.0033 12.3512C69.4001 12.6283 69.7176 12.7075 70.035 12.5887C70.3525 12.47 70.6302 12.2324 70.8683 11.8366C71.2651 11.2428 71.3445 10.7677 71.1461 10.3323C71.027 10.0552 70.7096 9.81763 70.2731 9.50094L68.8843 11.5595C68.7653 11.7178 68.7256 11.8366 68.7256 11.9157Z" fill="#114B8C"/>
<path fill-rule="evenodd" clip-rule="evenodd" d="M72.3364 15.0827L72.4951 14.8847C72.6935 15.0827 72.8919 15.2014 73.011 15.2014C73.2094 15.241 73.4078 15.1618 73.6062 14.9639L76.9393 11.5198C77.1377 11.3219 77.217 11.124 77.1377 10.8865C77.098 10.7677 76.979 10.6093 76.7806 10.3718L76.9393 10.1739L81.066 14.1326L79.6772 15.5577L79.5185 15.3994C79.8756 14.8451 80.0343 14.4097 79.955 14.0138C79.9153 13.618 79.5978 13.1825 79.0026 12.6283C78.8042 12.4303 78.6058 12.3116 78.5265 12.3116C78.4074 12.3116 78.3281 12.3512 78.1694 12.5095L76.5822 14.1722C76.979 14.568 77.3361 14.766 77.6139 14.766C77.8916 14.766 78.2884 14.568 78.7646 14.2513L78.963 14.4097L76.6219 16.8245L76.4235 16.6661C76.7806 16.2307 76.9393 15.8348 76.9393 15.5181C76.9393 15.2014 76.7409 14.8451 76.3441 14.4493L74.6775 16.1911C74.5188 16.3494 74.4791 16.4682 74.4791 16.6266C74.5188 16.7453 74.6379 16.9433 74.8759 17.1808C75.3124 17.6162 75.7886 17.8933 76.2647 17.9725C76.7409 18.0913 77.2964 17.9725 77.971 17.735L78.1694 17.9329L76.4631 19.1205L72.3364 15.0827Z" fill="#114B8C"/>
<path fill-rule="evenodd" clip-rule="evenodd" d="M77.7726 20.0311C77.9313 20.229 78.0901 20.3874 78.2091 20.4269C78.4075 20.5457 78.6059 20.5061 78.844 20.3478L82.7723 17.6163C83.0104 17.4579 83.1294 17.26 83.0897 17.0621C83.0897 16.9433 83.0104 16.7454 82.8516 16.5078L83.05 16.3495L85.034 19.1997L84.8356 19.3581C84.5976 19.0414 84.3992 18.8435 84.2404 18.8039C84.0817 18.7643 83.8436 18.8435 83.5262 19.081L79.6773 21.7729C79.4789 21.8917 79.3995 22.0104 79.3995 22.1688C79.3995 22.2875 79.5185 22.525 79.7169 22.7626C80.0741 23.2376 80.4708 23.5939 80.9073 23.7522C81.3438 23.9502 81.9787 23.9106 82.7723 23.7127L82.931 23.9502L80.8677 24.9003L77.5742 20.1894L77.7726 20.0311Z" fill="#114B8C"/>
<path fill-rule="evenodd" clip-rule="evenodd" d="M81.6613 26.0879L81.8993 25.9691C82.0184 26.2066 82.1374 26.365 82.2565 26.4441C82.4152 26.5629 82.6532 26.5629 82.8913 26.4441L87.2164 24.346C87.4942 24.2273 87.6132 24.0293 87.6132 23.8314C87.6132 23.7126 87.5736 23.5147 87.4545 23.2376L87.6926 23.1188L90.1924 28.2256L88.4068 29.0965L88.2878 28.8985C88.8036 28.5027 89.1211 28.1068 89.2004 27.7505C89.2798 27.3942 89.1608 26.84 88.8036 26.1274C88.6846 25.8503 88.5656 25.692 88.4465 25.6524C88.3672 25.6128 88.2084 25.6128 88.0497 25.692L85.9864 26.6817C86.2244 27.1963 86.5022 27.4734 86.78 27.5922C87.0577 27.6713 87.4545 27.6317 88.01 27.513L88.1291 27.7505L85.1134 29.2152L84.9944 28.9777C85.4705 28.661 85.7483 28.3443 85.8673 28.0672C85.9864 27.7901 85.907 27.3546 85.6689 26.8796L83.5262 27.9484C83.3278 28.0276 83.2485 28.1464 83.2088 28.2651C83.2088 28.3839 83.2485 28.6214 83.4072 28.8985C83.6849 29.4527 84.0024 29.8882 84.3992 30.1257C84.796 30.3632 85.3515 30.482 86.1054 30.482L86.2244 30.7195L84.2008 31.2737L81.6613 26.0879Z" fill="#114B8C"/>
<path fill-rule="evenodd" clip-rule="evenodd" d="M84.9944 32.6197C85.0737 32.8573 85.1531 33.0156 85.2324 33.0948C85.3912 33.2531 85.5896 33.2927 85.8276 33.2531L90.5892 32.0655C90.8273 31.9863 90.986 31.8676 91.0257 31.6696C91.0654 31.5509 91.0654 31.3529 91.0257 31.1154L91.2638 31.0363L91.978 33.9657C92.2558 35.1533 92.1764 36.143 91.7003 36.8951C91.2638 37.6077 90.5495 38.0827 89.5972 38.3202C88.7243 38.5182 87.9307 38.439 87.1768 38.0035C86.3435 37.5285 85.788 36.7368 85.5102 35.6679L84.7563 32.6197H84.9944ZM85.8276 35.0345C85.7483 35.1137 85.7483 35.2721 85.788 35.47C85.9467 36.0242 86.2641 36.4597 86.7403 36.7368C87.2164 37.0139 88.0497 36.9743 89.2004 36.6972C89.875 36.5388 90.4305 36.3013 90.867 35.9846C91.5812 35.47 91.8193 34.8366 91.6606 34.0844C91.5812 33.8469 91.5019 33.6886 91.3828 33.649C91.3035 33.6094 91.1447 33.6094 90.9463 33.6886L86.2244 34.8762C86.026 34.8762 85.907 34.9554 85.8276 35.0345Z" fill="#114B8C"/>
<path fill-rule="evenodd" clip-rule="evenodd" d="M86.7799 40.2204C86.8196 40.4975 86.8593 40.6954 86.9387 40.8142C87.0577 41.0121 87.2561 41.0913 87.5735 41.0517L92.3351 40.5371C92.6129 40.4975 92.8113 40.3787 92.8907 40.1808C92.9303 40.062 92.97 39.8641 92.9303 39.5474L93.1684 39.5078L93.5255 42.9519L93.2874 42.9915C93.2478 42.6748 93.1684 42.4768 93.1287 42.3581C93.0097 42.1601 92.8113 42.1205 92.4939 42.1205L87.7323 42.6352C87.4545 42.6748 87.2958 42.7539 87.2164 42.9123C87.1371 43.0706 87.1371 43.3082 87.1371 43.6249L86.899 43.6644L86.5419 40.2204H86.7799ZM95.1921 40.5767C95.3508 40.6954 95.4302 40.8538 95.4302 41.0121C95.4302 41.21 95.3905 41.3684 95.2714 41.5267C95.1524 41.6851 94.9937 41.7643 94.835 41.7643C94.6366 41.7643 94.4778 41.7247 94.3191 41.6059C94.1604 41.4872 94.081 41.3288 94.081 41.1705C94.081 41.0121 94.1207 40.8538 94.2398 40.6954C94.3588 40.5371 94.5175 40.4579 94.7159 40.4579C94.8746 40.4183 95.0334 40.4579 95.1921 40.5767Z" fill="#114B8C"/>
<path fill-rule="evenodd" clip-rule="evenodd" d="M93.5255 48.3357H93.2874C93.2874 47.9794 93.2874 47.7815 93.2477 47.6627C93.2081 47.5835 93.1684 47.5044 93.0493 47.5044C93.0097 47.5044 92.97 47.5044 92.8906 47.5044C92.8509 47.5044 92.7319 47.544 92.6129 47.6231L90.1527 48.7316V48.8107L91.8193 49.9588C91.9383 50.0379 92.0573 50.1171 92.2161 50.1963C92.4541 50.315 92.6129 50.3942 92.7319 50.3942C92.8906 50.3942 93.0097 50.3546 93.089 50.1963C93.1287 50.1171 93.1684 49.9192 93.2081 49.6025H93.4461L93.3271 51.7798H93.089C93.0493 51.6214 93.0493 51.5027 93.0097 51.3839C92.97 51.2651 92.8509 51.1464 92.7319 51.0672L89.7559 49.0087L87.9306 48.9295C87.5338 48.9295 87.2957 48.9691 87.1767 49.0879C87.0577 49.2066 86.9783 49.4441 86.9783 49.8004H86.7402L86.9386 46.3564H87.1767C87.1767 46.7126 87.2164 46.9502 87.3354 47.1085C87.4545 47.2273 87.6925 47.3064 88.0497 47.346L89.5178 47.4252L92.8906 45.8021C93.1287 45.6834 93.2874 45.5646 93.3668 45.4063C93.4461 45.2875 93.4461 45.1687 93.4858 45.05H93.7239L93.5255 48.3357Z" fill="#114B8C"/>
<path fill-rule="evenodd" clip-rule="evenodd" d="M86.4625 52.4527L86.7006 52.4923C86.6609 52.7694 86.6212 52.9673 86.6609 53.1257C86.7006 53.3236 86.899 53.4424 87.1767 53.5215L91.859 54.5904C92.1367 54.6696 92.3351 54.5904 92.4939 54.432C92.5732 54.3529 92.6526 54.1549 92.7319 53.8778L92.97 53.9174L91.7003 59.4596L89.7559 59.0241L89.7956 58.7866C90.4305 58.8262 90.9067 58.7074 91.2241 58.4699C91.5018 58.2324 91.7399 57.7178 91.9383 56.9656C92.0177 56.6885 92.0177 56.4906 91.978 56.3718C91.9383 56.2926 91.8193 56.2135 91.6606 56.1739L89.4385 55.6592C89.3195 56.2135 89.3195 56.6093 89.4782 56.8468C89.6369 57.0844 89.994 57.3219 90.5099 57.5594L90.4702 57.7969L87.2164 57.0448L87.2561 56.8073C87.8116 56.8468 88.2481 56.8073 88.5259 56.6489C88.8036 56.4906 89.002 56.1343 89.1211 55.5801L86.7799 55.0258C86.5815 54.9863 86.4228 54.9863 86.3435 55.0654C86.2641 55.1446 86.1451 55.3821 86.0657 55.6988C85.907 56.3322 85.907 56.8468 86.0657 57.2823C86.2244 57.7178 86.5815 58.1928 87.1767 58.6283L87.0974 58.9054L85.1927 58.0345L86.4625 52.4527Z" fill="#114B8C"/>
<path fill-rule="evenodd" clip-rule="evenodd" d="M86.7006 60.5285L86.5815 60.8056C85.8276 60.6472 85.2324 60.6868 84.7959 60.8847C84.3595 61.0827 84.042 61.3994 83.8436 61.8348C83.6849 62.2307 83.6452 62.587 83.7643 62.8641C83.923 63.1412 84.0817 63.2995 84.3198 63.4183C84.5975 63.5371 84.8356 63.5371 85.1134 63.4183C85.2721 63.3391 85.5102 63.1808 85.8673 62.8641L86.4228 62.3891C86.9783 61.914 87.4148 61.6369 87.8116 61.5181C88.2084 61.3994 88.6052 61.439 89.002 61.5973C89.4385 61.7952 89.7956 62.1119 90.0337 62.587C90.2718 63.062 90.2718 63.6558 89.994 64.2892C89.8353 64.6059 89.6766 64.9226 89.4385 65.1997C89.2004 65.4768 89.0814 65.6352 89.0417 65.6748C89.002 65.7935 89.002 65.8727 89.0417 65.9123C89.0814 65.9915 89.1607 66.031 89.2401 66.1102L89.1211 66.3873L87.1371 65.556L87.2561 65.3185C87.7719 65.3977 88.2481 65.3581 88.7243 65.1601C89.2004 65.0018 89.5179 64.6851 89.7163 64.2496C89.8353 63.9329 89.875 63.6558 89.7559 63.4183C89.6766 63.1808 89.5178 62.9828 89.2401 62.9037C88.9623 62.7849 88.6846 62.7849 88.4862 62.8641C88.2878 62.9829 87.891 63.26 87.3751 63.6954L86.7403 64.2496C86.4625 64.4872 86.1847 64.6455 85.9467 64.7643C85.4705 64.9622 84.9547 64.9622 84.4785 64.7247C84.0023 64.5267 83.6452 64.1705 83.4071 63.6162C83.1691 63.1016 83.2087 62.4286 83.5262 61.5973C83.6055 61.3994 83.6849 61.241 83.8039 61.0431C83.923 60.8847 84.042 60.7264 84.2007 60.5681L84.3595 60.4097C84.3991 60.3701 84.3991 60.3305 84.4388 60.2909C84.4785 60.2514 84.4785 60.2118 84.4785 60.2118C84.5182 60.1326 84.5182 60.0534 84.4785 59.9742C84.4388 59.9347 84.3595 59.8555 84.2801 59.7763L84.3991 59.4992L86.7006 60.5285Z" fill="#114B8C"/>
<path fill-rule="evenodd" clip-rule="evenodd" d="M82.3755 65.1205C82.2168 65.358 82.1771 65.556 82.1374 65.6747C82.1374 65.9122 82.2564 66.0706 82.4945 66.2289L86.6212 68.6833C86.8593 68.8417 87.0974 68.8417 87.2561 68.7229C87.3752 68.6437 87.4942 68.4854 87.6529 68.2479L87.8513 68.3666L86.0657 71.3356L85.8673 71.2169C86.026 70.9398 86.1054 70.7418 86.1054 70.6231C86.1054 70.4251 85.9864 70.2272 85.7483 70.0689L81.6216 67.6145C81.3835 67.4561 81.1851 67.4561 81.0264 67.5353C80.8676 67.6145 80.7089 67.8124 80.5502 68.0499L80.3518 67.9312L82.1374 64.9622L82.3755 65.1205ZM88.883 70.4647C88.9227 70.6627 88.9227 70.821 88.8036 70.9794C88.7243 71.1377 88.5655 71.2565 88.3672 71.2961C88.1688 71.3357 88.01 71.2961 87.8513 71.2169C87.6926 71.1377 87.5736 70.9794 87.5339 70.7814C87.4942 70.5835 87.5339 70.4251 87.6132 70.2668C87.6926 70.1085 87.8513 70.0293 88.01 69.9501C88.2084 69.9105 88.3672 69.9105 88.5259 70.0293C88.7243 70.148 88.8433 70.3064 88.883 70.4647Z" fill="#114B8C"/>
<path fill-rule="evenodd" clip-rule="evenodd" d="M12.4198 76.3236C12.6182 76.5215 12.7769 76.6007 12.8959 76.6403C13.0943 76.6799 13.2927 76.6403 13.5308 76.4028L16.8639 72.9587C17.0623 72.7608 17.1417 72.5628 17.0623 72.3649C17.0226 72.2461 16.9036 72.0878 16.7052 71.8503L16.8639 71.6523L19.2844 73.988L19.1257 74.1859C18.8479 73.988 18.6495 73.8692 18.4908 73.8296C18.3321 73.8296 18.1337 73.9484 17.8559 74.2255L16.3878 75.7298L19.4034 75.6506C19.6018 75.6506 19.7605 75.6506 19.8399 75.611C19.9193 75.611 19.9986 75.5714 20.0383 75.4923C20.1177 75.4131 20.1573 75.2943 20.078 75.2152C20.0383 75.0964 19.8796 74.9381 19.6415 74.7005L19.8002 74.5026L21.8636 76.4819L21.7049 76.6799C21.3081 76.3632 20.9113 76.1653 20.4748 76.1257C20.078 76.0861 19.1653 76.0465 17.8559 76.0861L17.4194 80.8761C17.4194 80.9949 17.4194 81.074 17.4591 81.1136C17.4988 81.1532 17.5385 81.2324 17.6575 81.3511L17.4988 81.5491L15.118 79.253L15.2767 79.0551C15.4751 79.253 15.6338 79.4114 15.7529 79.451C15.8322 79.5301 15.9116 79.4906 15.991 79.451C16.0306 79.4114 16.0306 79.3718 16.0703 79.2926C16.11 79.2134 16.11 79.0947 16.11 78.9759L16.3878 76.1257H16.0306L14.6815 77.5112C14.4831 77.7091 14.4038 77.9071 14.4831 78.1446C14.5228 78.2634 14.6418 78.4217 14.8006 78.6196L14.6418 78.8176L12.261 76.5215L12.4198 76.3236Z" fill="#114B8C"/>
<path fill-rule="evenodd" clip-rule="evenodd" d="M24.4031 84.4785C24.7999 84.1619 25.1967 83.6868 25.5935 83.0534C26.1491 82.1825 26.4665 81.4304 26.5062 80.797C26.5459 80.1636 26.3078 79.7281 25.8713 79.4114C25.2364 79.0156 24.5619 79.0947 23.8476 79.6885C23.4508 80.0052 23.054 80.4803 22.6572 81.1137C22.2208 81.747 21.943 82.3013 21.824 82.8159C21.5859 83.6868 21.7446 84.3598 22.3795 84.7557C23.0144 85.1515 23.6889 85.0724 24.4031 84.4785ZM27.6172 81.272C27.8156 82.1825 27.6569 83.093 27.1014 83.9639C26.5459 84.8348 25.7919 85.3495 24.8396 85.5474C23.927 85.7453 23.054 85.5474 22.2208 84.9932C21.3478 84.3994 20.7923 83.6472 20.6336 82.6971C20.4748 81.7866 20.6336 80.9553 21.1494 80.1636C21.7049 79.2927 22.4588 78.7384 23.3715 78.5405C24.2841 78.3426 25.1967 78.5009 26.0697 79.0551C26.8633 79.6885 27.3791 80.4011 27.6172 81.272Z" fill="#114B8C"/>
<path fill-rule="evenodd" clip-rule="evenodd" d="M27.7362 87.6455C28.0934 87.7643 28.3314 87.7643 28.4902 87.6851C28.6489 87.6059 28.7679 87.4476 28.8473 87.2101L30.4345 82.8159C30.2757 82.3804 30.1567 82.1429 30.117 82.0638C30.0773 81.9846 29.998 81.9054 29.8789 81.8658L29.9583 81.6283L31.9423 82.3409L33.7279 87.408H33.7676L34.7596 84.6369C34.8786 84.3202 34.8786 84.0827 34.8389 83.8847C34.7596 83.7264 34.5612 83.5285 34.2437 83.3701L34.3231 83.1326L36.3468 83.8452L36.2674 84.0827C35.95 84.0431 35.7516 84.0035 35.5929 84.0827C35.4738 84.1223 35.3548 84.2806 35.2357 84.5973L33.2517 90.0603L32.974 89.9811L30.6725 83.5285L30.5932 83.4889L29.2441 87.1309C29.125 87.408 29.125 87.6455 29.125 87.7643C29.1647 88.0018 29.4028 88.1997 29.7599 88.3581L29.6806 88.5956L27.5775 87.8434L27.7362 87.6455Z" fill="#114B8C"/>
<path fill-rule="evenodd" clip-rule="evenodd" d="M40.4338 84.716L40.3941 84.9535C40.037 84.914 39.8386 84.914 39.7196 84.914C39.6005 84.914 39.5609 84.9931 39.5609 85.0723C39.5609 85.1119 39.5609 85.1515 39.5609 85.2307C39.5609 85.2702 39.6005 85.389 39.6402 85.5473L40.4735 88.0809H40.5529L41.8623 86.537C41.9417 86.4578 42.021 86.3391 42.1401 86.1807C42.2988 85.9828 42.3781 85.7849 42.3781 85.7057C42.4178 85.5473 42.3385 85.389 42.2194 85.3494C42.1401 85.3098 41.9417 85.2307 41.6242 85.1515L41.6639 84.914L43.8066 85.2702L43.7669 85.5078C43.6082 85.5078 43.4892 85.5078 43.3701 85.5473C43.2511 85.5869 43.1321 85.6661 43.013 85.7849L40.6719 88.5164L40.3941 90.2978C40.3545 90.6541 40.3545 90.9312 40.4735 91.0499C40.5925 91.1687 40.8306 91.2874 41.1481 91.327L41.1084 91.5646L37.6959 91.0103L37.7356 90.7728C38.0927 90.8124 38.3308 90.8124 38.4895 90.6936C38.6482 90.6145 38.7276 90.3769 38.7673 90.0207L39.0054 88.5955L37.7356 85.0723C37.6562 84.8348 37.5372 84.6764 37.3785 84.5577C37.2594 84.4785 37.1801 84.4389 37.061 84.3993L37.1007 84.1618L40.4338 84.716Z" fill="#114B8C"/>
<path fill-rule="evenodd" clip-rule="evenodd" d="M47.6952 89.5852L46.7032 87.3287H46.6239L45.7509 89.6248L47.6952 89.5852ZM44.005 91.7229C44.2431 91.6833 44.4415 91.6041 44.5605 91.4062C44.6399 91.2874 44.7986 91.0103 44.9573 90.5749L47.0604 85.1119H47.3381L49.6396 90.2582C49.9173 90.852 50.076 91.2083 50.2348 91.3666C50.3538 91.525 50.5522 91.6041 50.7506 91.6041V91.8417L47.5365 91.8812V91.6437C47.854 91.6437 48.0524 91.6041 48.1714 91.5645C48.2904 91.525 48.3301 91.4062 48.3301 91.2479C48.3301 91.1687 48.2904 91.0499 48.2508 90.8916C48.2111 90.8124 48.1714 90.6936 48.1317 90.5749L47.854 89.9811L45.6319 90.0207C45.5128 90.4165 45.3938 90.654 45.3541 90.8124C45.2748 91.0499 45.2351 91.2479 45.2351 91.3666C45.2351 91.525 45.3541 91.6041 45.5128 91.6833C45.6319 91.7229 45.7906 91.7229 46.0287 91.7229V91.9604L44.005 92V91.7229Z" fill="#114B8C"/>
<path d="M56.7026 87.2496C56.4248 86.6558 55.6312 86.3787 55.036 86.6954C54.3614 86.9725 54.044 87.7246 54.4011 88.358C54.6789 88.9518 55.4328 89.2685 56.0677 88.9914C56.7026 88.6351 56.9803 87.9226 56.7026 87.2496Z" fill="#114B8C"/>
<path d="M56.7026 87.2496C56.4248 86.6558 55.6312 86.3787 55.036 86.6954C54.3614 86.9725 54.044 87.7246 54.4011 88.358C54.6789 88.9518 55.4328 89.2685 56.0677 88.9914C56.7026 88.6351 56.9803 87.9226 56.7026 87.2496Z" fill="#114B8C"/>
<path fill-rule="evenodd" clip-rule="evenodd" d="M62.1784 89.0706C62.6545 88.8727 62.9323 88.7143 63.0117 88.5164C63.091 88.3184 63.0514 88.0809 62.9323 87.7246L61.5832 84.1618C61.5038 83.9243 61.4245 83.7659 61.3054 83.6868C61.2261 83.6076 61.107 83.6076 60.9483 83.6472C60.869 83.6868 60.7499 83.7264 60.6309 83.8451C60.5515 83.9243 60.4325 84.0035 60.2738 84.1618L60.1944 83.9243L62.1387 82.0241L62.2974 81.9449L64.3211 87.21C64.4401 87.5663 64.5989 87.7642 64.7576 87.8434C64.9163 87.9226 65.1941 87.883 65.6702 87.7246L65.7496 87.9622L62.2974 89.3081L62.1784 89.0706Z" fill="#114B8C"/>
<path fill-rule="evenodd" clip-rule="evenodd" d="M68.6065 83.0138C68.6859 82.9346 68.7256 82.895 68.7256 82.8555C68.7256 82.8159 68.6859 82.7367 68.6065 82.5388C68.5272 82.3408 68.4081 82.1033 68.2494 81.8658C68.0907 81.5887 67.932 81.3512 67.8129 81.1136C67.6542 80.9157 67.5352 80.7178 67.4161 80.5594C67.2574 80.4011 67.1384 80.2823 67.0193 80.2031C66.8209 80.0844 66.6225 80.0844 66.4241 80.1636C66.2257 80.2823 66.1464 80.4802 66.1464 80.7178C66.1861 80.9553 66.3051 81.272 66.5035 81.6679C66.8606 82.3012 67.2177 82.7763 67.5352 83.0138C67.8526 83.2513 68.1304 83.3305 68.4081 83.1722C68.4875 83.1722 68.5272 83.093 68.6065 83.0138ZM67.8526 86.7746C68.2494 86.4183 68.5669 86.062 68.7653 85.6661C69.1224 84.9536 69.1621 84.2014 68.8843 83.2909H68.8446C68.7653 83.4097 68.6859 83.4889 68.6065 83.5284C68.4875 83.6472 68.3685 83.7264 68.2097 83.8055C67.7733 84.0827 67.2971 84.1222 66.8209 84.0035C66.3448 83.8847 65.948 83.5284 65.6305 83.0138C65.2734 82.3804 65.1941 81.7866 65.3528 81.2324C65.5115 80.6782 65.8289 80.2427 66.3448 79.926C66.94 79.6093 67.5352 79.5302 68.1701 79.7677C68.8049 80.0052 69.3208 80.4803 69.7573 81.1928C70.3921 82.3012 70.4715 83.4097 69.9953 84.5577C69.5985 85.5474 68.9637 86.3391 68.0113 86.9329L67.8526 86.7746Z" fill="#114B8C"/>
<path fill-rule="evenodd" clip-rule="evenodd" d="M72.7729 78.1842C72.7332 77.9863 72.6142 77.7884 72.4555 77.5904C72.2174 77.3133 72.019 77.1154 71.7412 77.0362C71.5031 76.9175 71.2254 76.9966 70.9873 77.1946C70.7889 77.3529 70.7095 77.5113 70.6699 77.7488C70.6302 77.9467 70.7095 78.1446 70.8683 78.3426C71.1064 78.6197 71.4635 78.778 71.9396 78.8176C72.2174 78.8176 72.5348 78.8176 72.8126 78.7384C72.8126 78.4613 72.8126 78.303 72.7729 78.1842ZM73.8443 82.1825C74.2411 82.42 74.5585 82.42 74.8759 82.1429C75.0743 81.9846 75.1537 81.8262 75.1934 81.5887C75.2331 81.3512 75.114 81.0741 74.8759 80.7574C74.6379 80.4407 74.3204 80.2823 73.9633 80.2032C73.7252 80.1636 73.3284 80.1636 72.7729 80.2032C72.8126 80.5595 72.8523 80.797 72.8919 80.9553C72.9713 81.1928 73.0903 81.4304 73.2887 81.6679C73.4475 81.9054 73.6459 82.0638 73.8443 82.1825ZM72.0587 81.1533C72.0984 80.9157 72.2571 80.599 72.4555 80.2823L72.4158 80.2032C72.3364 80.2428 72.1777 80.2428 71.8603 80.2428C71.5825 80.2428 71.3047 80.2032 71.146 80.1636C70.9476 80.0844 70.7492 80.0052 70.6302 79.9261C70.5111 79.8469 70.3921 79.7281 70.2731 79.5698C69.9953 79.1739 69.8763 78.7385 69.9953 78.2238C70.1143 77.7092 70.4318 77.2341 70.9476 76.8383C71.4238 76.4424 71.8999 76.2841 72.3364 76.2841C72.7729 76.2841 73.0903 76.4424 73.3284 76.7591C73.5665 77.0758 73.6459 77.4321 73.5268 77.828C73.4871 78.0655 73.3284 78.303 73.1697 78.6197L73.2094 78.6593C73.8046 78.6197 74.2014 78.6593 74.4791 78.6989C74.9156 78.8176 75.3124 79.0552 75.5902 79.4114C75.987 79.9261 76.106 80.4407 75.987 80.9949C75.8679 81.5491 75.5108 82.0242 74.995 82.4596C74.5982 82.7763 74.122 82.9347 73.6459 82.9743C73.13 83.0138 72.6935 82.8159 72.3761 82.3805C72.0587 82.0242 71.9396 81.6283 72.0587 81.1533Z" fill="#114B8C"/>
<path fill-rule="evenodd" clip-rule="evenodd" d="M77.9313 75.6903C77.971 75.6111 78.0107 75.5319 78.0107 75.4923C78.0107 75.4527 77.9313 75.3736 77.8123 75.2152C77.6932 75.0569 77.4948 74.8589 77.2964 74.661C77.0584 74.4235 76.86 74.2255 76.6616 74.0672C76.4632 73.9088 76.3044 73.7505 76.1457 73.6713C75.9473 73.5526 75.7886 73.4734 75.6696 73.4338C75.4315 73.3546 75.2331 73.4338 75.114 73.5526C74.9553 73.7109 74.9156 73.9088 74.995 74.1464C75.0744 74.3839 75.2728 74.661 75.5902 74.9381C76.1457 75.4527 76.5822 75.809 76.9393 75.9674C77.2964 76.1257 77.6139 76.0861 77.8123 75.8486C77.8123 75.8486 77.852 75.809 77.9313 75.6903ZM78.2091 79.5302C78.4868 79.0552 78.6852 78.6197 78.7646 78.2238C78.8836 77.4717 78.7249 76.6799 78.2488 75.9278H78.2091C78.1297 76.0465 78.09 76.1653 78.0504 76.2445C77.971 76.3632 77.852 76.5216 77.7329 76.6404C77.3758 76.9966 76.9393 77.1946 76.4632 77.1946C75.9473 77.1946 75.5108 76.9966 75.0347 76.5612C74.5188 76.0861 74.2808 75.5319 74.2411 74.9381C74.2411 74.3443 74.4395 73.8297 74.8363 73.4338C75.3124 72.9588 75.868 72.7212 76.5425 72.8004C77.2171 72.84 77.852 73.1567 78.4472 73.7505C79.3598 74.6214 79.7566 75.6903 79.6375 76.9175C79.5185 77.9467 79.1217 78.8968 78.4075 79.7677L78.2091 79.5302Z" fill="#114B8C"/>
<path d="M37.4578 38.4389H42.8146L46.5842 34.6782L50.3538 38.4389H55.6709V43.7832L59.4405 47.5439L55.6709 51.3047V56.6093H50.3538L46.5842 60.3701L42.8146 56.6093H37.4578V51.3047L33.7279 47.5439L37.4578 43.7832V38.4389Z" fill="#27AAE1"/>
<path fill-rule="evenodd" clip-rule="evenodd" d="M39.4418 25.2168V8.82784C39.4418 8.82784 39.5212 6.13593 36.7833 6.13593C34.5612 6.13593 34.1247 7.60064 34.1247 8.6299C34.1247 9.38205 34.7993 10.8468 35.831 11.8364C36.8626 12.8261 37.6562 13.7762 37.6562 15.2805C37.6562 16.7848 36.069 18.1704 34.9977 18.1704C33.9263 18.1704 32.9343 17.8141 32.6566 17.537C32.3391 17.2203 31.5852 16.7452 32.1804 15.0826C32.5375 14.37 33.0137 14.4096 33.2914 14.37C33.5692 14.3304 34.2041 14.0533 33.5692 13.1032C32.9343 12.1531 31.863 10.6884 31.863 10.6884C31.863 10.6884 29.0854 7.28395 31.8233 3.32525C32.6169 2.17723 34.4818 0.67293 36.942 1.38549C39.3625 2.05847 40.1957 4.19617 40.1957 4.19617L43.7273 0.118713H44.4415L44.2828 23.6729L45.4335 24.821L42.2591 27.9879L39.4418 25.2168Z" fill="#114B8C"/>
<path d="M50.949 66.4664L47.7349 69.6729C47.973 69.7917 48.9253 70.7022 49.084 70.9001C50.3538 72.1669 50.3538 74.1858 49.084 75.4526C47.8143 76.7194 45.7906 76.7194 44.5208 75.4526C43.2511 74.1858 43.2511 72.1669 44.5208 70.9001L49.4808 65.9518L51.7426 63.6953L52.8139 62.6265H55.6709V58.1531H50.9887L41.4258 67.6936C38.4101 70.7022 38.4101 75.5318 41.4258 78.5404C44.4415 81.549 49.2824 81.549 52.2981 78.5404C55.3138 75.5318 55.3138 70.7022 52.2981 67.6936C52.0997 67.5352 51.1474 66.6247 50.949 66.4664Z" fill="#114B8C"/>
<path d="M60.7102 10.5697C60.7102 10.5697 63.4878 7.16523 60.7499 3.20654C59.9563 2.05852 58.0914 0.554217 55.6312 1.26678C53.1711 1.97935 52.3775 4.07745 52.3775 4.07745L48.8459 0H48.1317L48.092 24.1876L40.1561 32.105H37.4578V36.7762H42.1004L53.0123 25.8898V8.74871C53.0123 8.74871 52.9726 6.0568 55.7106 6.0568C57.9326 6.0568 58.3691 7.52151 58.3691 8.55077C58.3691 9.30293 57.6946 10.7676 56.6629 11.7573C55.6312 12.747 54.8376 13.6971 54.8376 15.2014C54.8376 16.7057 56.4248 18.0912 57.4962 18.0912C58.5675 18.0912 59.5595 17.7349 59.8373 17.4578C60.1547 17.1411 60.9086 16.6661 60.3134 15.0034C59.9563 14.2909 59.4801 14.3305 59.2024 14.2909C58.9246 14.2513 58.2898 13.9742 58.9246 13.0241C59.6389 12.0344 60.7102 10.5697 60.7102 10.5697Z" fill="#114B8C"/>
<path d="M28.4902 62.7453H40.2751L42.2194 64.6851L45.3938 61.5181L42.1401 58.272H28.4902C24.2444 58.272 20.7923 61.716 20.7923 65.9518C20.7923 70.1876 24.2444 73.6317 28.4902 73.6317C32.7359 73.6317 36.1881 70.1876 36.1881 65.9518C36.1881 65.6747 36.1881 65.4372 36.1484 65.1601H31.6249C31.7043 65.3976 31.7043 65.6747 31.7043 65.9518C31.7043 67.7333 30.2758 69.1584 28.4902 69.1584C26.7046 69.1584 25.2761 67.7333 25.2761 65.9518C25.2761 64.1704 26.7046 62.7453 28.4902 62.7453Z" fill="#114B8C"/>
<path d="M28.133 21.9708C23.8873 21.9708 20.4351 25.4148 20.4351 29.6506C20.4351 33.8864 23.8873 37.3305 28.133 37.3305C28.2521 37.3305 28.5695 37.3305 28.9266 37.3305V32.8176C28.5695 32.8176 28.2521 32.8176 28.133 32.8176C26.3474 32.8176 24.9189 31.3925 24.9189 29.611C24.9189 27.8296 26.3474 26.4045 28.133 26.4045C29.9186 26.4045 31.3471 27.8296 31.3471 29.611V36.5783V38.1618V41.1704L29.3631 43.1498L32.5375 46.3167L35.8309 43.031V29.611C35.7912 25.3752 32.3788 21.9708 28.133 21.9708Z" fill="#114B8C"/>
<path d="M65.0354 57.7177C64.7576 57.7177 63.4085 57.7177 63.1307 57.7573V62.2702C63.3688 62.1911 64.7576 62.1911 65.0354 62.1911C66.821 62.1911 68.2494 63.6162 68.2494 65.3976C68.2494 67.179 66.821 68.6041 65.0354 68.6041C63.2498 68.6041 61.8213 67.179 61.8213 65.3976V58.4303V56.8468V53.8382L63.7656 51.8985L60.5912 48.7315L57.3375 51.9776V65.3976C57.3375 69.6334 60.7896 73.0775 65.0354 73.0775C69.2811 73.0775 72.7333 69.6334 72.7333 65.3976C72.7333 61.1618 69.2811 57.7177 65.0354 57.7177Z" fill="#114B8C"/>
<path d="M31.3074 56.6093H35.7912V51.9776L27.3394 43.5456C24.3238 40.537 19.4828 40.537 16.4671 43.5456C13.4515 46.5542 13.4515 51.3838 16.4671 54.3924C19.4828 57.401 24.3238 57.401 27.3394 54.3924C27.5378 54.1945 27.6965 53.9965 27.8553 53.7986L24.6412 50.592C24.5222 50.8296 24.3634 51.0275 24.165 51.2254C22.8953 52.4922 20.8716 52.4922 19.6018 51.2254C18.3321 49.9587 18.3321 47.9397 19.6018 46.6729C20.8716 45.4062 22.8953 45.4062 24.165 46.6729L29.125 51.6213L30.2361 52.7297L31.3074 53.7986V56.6093Z" fill="#114B8C"/>
<path d="M77.5742 41.5663C74.5585 38.5577 69.7176 38.5577 66.7019 41.5663C66.5035 41.7642 66.3448 41.9622 66.1861 42.1601L69.4001 45.3666C69.5192 45.1291 69.6779 44.9312 69.8763 44.7332C71.1461 43.4665 73.1697 43.4665 74.4395 44.7332C75.7092 46 75.7092 48.019 74.4395 49.2857C73.1697 50.5525 71.1461 50.5525 69.8763 49.2857L64.956 44.3374L62.8926 42.3184L61.8213 41.2496V38.4785H57.3375V43.1102L66.7019 52.4527C69.7176 55.4613 74.5585 55.4613 77.5742 52.4527C80.5899 49.4045 80.5899 44.5353 77.5742 41.5663Z" fill="#114B8C"/>
<path d="M65.075 21.4166C60.8293 21.4166 57.3771 24.8606 57.3771 29.0964C57.3771 29.3735 57.3771 29.6111 57.4168 29.8882H61.9403C61.861 29.6506 61.8609 29.3735 61.8609 29.0964C61.8609 27.315 63.2894 25.8899 65.075 25.8899C66.8606 25.8899 68.2891 27.315 68.2891 29.0964C68.2891 30.8778 66.8606 32.303 65.075 32.303H58.0914H56.5042H52.933L50.9887 30.3632L47.8143 33.5302L51.1077 36.8159H65.075C69.3208 36.8159 72.7729 33.3718 72.7729 29.136C72.7729 24.8606 69.3208 21.4166 65.075 21.4166Z" fill="#114B8C"/>
</svg>
